<svg id="Capa_1" enable-background="new 0 0 511.5 511.5" height="512" viewBox="0 0 511.5 511.5" width="512" xmlns="http://www.w3.org/2000/svg"><path d="m454.003 54.18c0-14.472-5.636-28.078-15.868-38.311-10.234-10.233-23.839-15.869-38.312-15.869-14.472 0-28.077 5.636-38.311 15.869l-45.599 45.599-2.407-2.407c-18.196-18.195-47.803-18.194-65.997 0-16.699 16.7-18.072 43.01-4.119 61.29l-137.88 137.882c-12.303 12.303-18.904 28.661-18.69 45.783l-10.724 10.724c-17.416 17.416-17.415 45.753 0 63.167 6.65 6.65 14.89 10.752 23.508 12.324-2.422 2.153-11.117 10.09-19.855 20.604-14.765 17.764-22.251 33.944-22.251 48.091 0 28.989 23.584 52.574 52.573 52.574s52.574-23.584 52.574-52.574c0-32.316-38.518-65.698-42.91-69.398l-.195-.164c7.229-1.979 14.056-5.79 19.724-11.457l10.724-10.723c17.074.216 33.479-6.388 45.783-18.691l137.882-137.881c18.28 13.954 44.592 12.58 61.289-4.119 8.814-8.814 13.669-20.533 13.669-32.999 0-12.465-4.854-24.184-13.669-32.998l-2.406-2.406 45.599-45.599c10.232-10.234 15.868-23.839 15.868-38.311zm-237.304 135.29 47.834 47.834-21.383 21.384-47.834-47.835zm-84.054 269.456c0 12.447-10.127 22.574-22.574 22.574s-22.573-10.126-22.573-22.574c0-9.848 11.32-25.333 22.667-37.245 11.271 11.693 22.48 27.049 22.48 37.245zm41.913-131.646c-7.497 7.497-17.846 10.996-28.386 9.603l-7.339-.971-20.782 20.782c-5.719 5.719-15.023 5.718-20.742 0s-5.718-15.022 0-20.741l20.782-20.782-.971-7.339c-1.394-10.543 2.106-20.889 9.603-28.386l47.38-47.38 47.834 47.835zm199.171-142c-6.499 6.497-17.072 6.497-23.569 0l-16.801-16.802-47.613 47.613-47.834-47.834 47.613-47.613-16.802-16.8c-3.147-3.148-4.881-7.333-4.881-11.785s1.733-8.637 4.882-11.786c3.148-3.148 7.333-4.881 11.785-4.881 4.451 0 8.637 1.733 11.785 4.881l81.435 81.435c3.148 3.148 4.882 7.333 4.882 11.785-.001 4.454-1.734 8.639-4.882 11.787zm43.192-114.003-45.599 45.6-34.196-34.196 45.599-45.599c4.567-4.567 10.64-7.082 17.098-7.082 6.459 0 12.53 2.515 17.098 7.083 4.567 4.566 7.082 10.639 7.082 17.097s-2.515 12.53-7.082 17.097z"/></svg>